<svg xmlns="http://www.w3.org/2000/svg" width="96" height="15" fill="#ffc544" fill-rule="nonzero"><path d="M7.142.522 5.2 4.4.82 5.024c-.784.1-1.098 1.057-.53 1.6L3.45 9.64l-.748 4.262c-.135.77.694 1.347 1.388.987l3.9-2.01 3.9 2.012c.694.357 1.522-.217 1.388-.987L12.55 9.64l3.16-3.017c.568-.542.254-1.488-.53-1.6L10.8 4.4 8.858.522a.97.97.0 0 0-1.717.0zm20 0L25.2 4.4l-4.37.624c-.784.1-1.098 1.057-.53 1.6l3.16 3.017-.748 4.262c-.135.77.694 1.347 1.388.987l3.9-2.012 3.9 2.012c.694.357 1.522-.217 1.388-.987L32.55 9.64l3.16-3.017c.568-.542.254-1.488-.53-1.6L30.8 4.4 28.858.522a.97.97.0 0 0-1.717.0zm20 0L45.2 4.4l-4.37.624c-.784.1-1.098 1.057-.53 1.6l3.16 3.017-.748 4.262c-.135.77.694 1.347 1.388.987l3.9-2.012 3.9 2.012c.694.357 1.522-.217 1.388-.987L52.55 9.64l3.16-3.017c.568-.542.254-1.488-.53-1.6L50.8 4.4 48.858.522a.97.97.0 0 0-1.717.0zm20 0L65.2 4.4l-4.37.624c-.784.1-1.098 1.057-.53 1.6l3.16 3.017-.748 4.262c-.135.77.694 1.347 1.388.987l3.9-2.012 3.9 2.012c.694.357 1.522-.217 1.388-.987L72.55 9.64l3.16-3.017c.568-.542.254-1.488-.53-1.6L70.8 4.4 68.858.522a.97.97.0 0 0-1.717.0zm20 0L85.2 4.4l-4.37.624c-.784.1-1.098 1.057-.53 1.6l3.16 3.017-.748 4.262c-.135.77.694 1.347 1.388.987l3.9-2.012 3.9 2.012c.694.357 1.522-.217 1.388-.987L92.55 9.64l3.16-3.017c.568-.542.254-1.488-.53-1.6L90.8 4.4 88.858.522a.97.97.0 0 0-1.717.0z"/></svg>