<svg xmlns="http://www.w3.org/2000/svg" xmlns:xlink="http://www.w3.org/1999/xlink" width="77" height="77" viewBox="0 0 77 77"><title>Combined Shape</title><desc>Created with Sketch.</desc><g id="Product-Page" stroke="none" stroke-width="1" fill="none" fill-rule="evenodd"><g id="WordPress-plugins" transform="translate(-190.000000, -435.000000)" fill="#39c3d2"><path d="M228.5 512C207.237037 512 190 494.762963 190 473.5 190 452.237037 207.237037 435 228.5 435 249.762963 435 267 452.237037 267 473.5 267 494.762963 249.762963 512 228.5 512zM246.84375 483.592059H215.625V460.826544C215.625 460.164547 215.107578 459.628359 214.46875 459.628359h-2.3125C211.517422 459.628359 211 460.164547 211 460.826544V485.988429C211 487.311674 212.035566 488.384798 213.3125 488.384798h33.53125C247.482578 488.384798 248 487.848611 248 487.186613V484.790244C248 484.128246 247.482578 483.592059 246.84375 483.592059zM244.53125 462.024729H235.99957C234.454531 462.024729 233.680566 463.960547 234.773223 465.092832L237.114629 467.519156 231.8125 473.014332 226.510371 467.519905C225.607051 466.583823 224.142949 466.583823 223.240352 467.519905L218.276426 472.663863C217.824766 473.131904 217.824766 473.890505 218.276426 474.358546L219.911074 476.05248C220.362734 476.520521 221.094785 476.520521 221.546445 476.05248L224.875 472.602456 230.177129 478.096883C231.080449 479.032965 232.544551 479.032965 233.447148 478.096883L240.384648 470.907773 242.726055 473.334098C243.818711 474.466382 245.686777 473.664347 245.686777 472.063273V463.222914C245.6875 462.560917 245.170078 462.024729 244.53125 462.024729z" id="Combined-Shape"/></g></g></svg>